<?xml version="1.0" encoding="iso-8859-1"?>
<!-- Generator: Adobe Illustrator 19.0.0, SVG Export Plug-In . SVG Version: 6.00 Build 0)  -->
<svg version="1.1" id="Capa_1" xmlns="http://www.w3.org/2000/svg" xmlns:xlink="http://www.w3.org/1999/xlink" x="0px" y="0px"
	 viewBox="0 0 504.911 504.911" style="enable-background:new 0 0 504.911 504.911;" xml:space="preserve">
<circle style="fill:#FCBD5E;" cx="252.455" cy="252.849" r="252.062"/>
<g>
	<path style="fill:#183651;" d="M403.692,250.486l-15.754-3.151c0.788-4.726,1.575-10.24,2.363-14.966l15.754,1.575
		C406.055,239.458,405.268,244.972,403.692,250.486z M391.877,217.403L391.877,217.403c0-5.514,0-10.24-0.788-14.966l15.754-1.575
		c0.788,5.514,0.788,10.24,0.788,15.754L391.877,217.403z M388.726,188.258c-0.788-4.726-2.363-9.452-3.938-14.178l14.966-4.726
		c1.575,5.514,3.151,10.24,3.938,15.754L388.726,188.258z M379.274,159.902c-2.363-4.726-4.726-8.665-7.089-13.391l13.391-7.877
		c3.151,4.726,5.514,9.452,7.877,14.966L379.274,159.902z M364.308,133.908c-3.151-3.938-6.302-7.877-9.452-11.815l11.815-11.028
		c3.938,3.938,7.089,8.665,10.24,12.603L364.308,133.908z M343.828,111.852c-3.151-2.363-6.302-4.726-8.665-7.089l9.452-12.603
		c3.151,2.363,7.089,5.514,10.24,7.877L343.828,111.852z"/>
	<path style="fill:#183651;" d="M101.218,250.486c-0.788-3.938-1.575-8.665-2.363-12.603l15.754-2.363
		c0.788,3.938,1.575,7.877,2.363,11.815L101.218,250.486z M97.28,221.342c0-1.575,0-3.151,0-4.726c0-3.938,0-7.877,0.788-11.815
		l15.754,1.575c0,3.938-0.788,7.089-0.788,11.028c0,1.575,0,2.363,0,3.938H97.28z M115.397,191.409l-15.754-3.151
		c0.788-5.514,2.363-11.028,3.938-15.754l14.966,4.726C117.76,181.169,116.185,185.895,115.397,191.409z M124.062,162.265
		l-14.178-6.302c2.363-4.726,4.726-10.24,7.089-14.966l13.391,7.877C128,153.6,125.637,158.326,124.062,162.265z M138.24,136.271
		l-12.603-9.452c3.151-4.726,6.302-8.665,10.24-13.391l11.815,10.24C144.542,128.394,141.391,132.332,138.24,136.271z
		 M157.932,114.215L146.905,102.4c3.938-3.938,8.665-7.089,12.603-10.24l9.452,12.603
		C165.809,107.914,161.871,111.065,157.932,114.215z"/>
</g>
<path style="fill:#4EBD9E;" d="M496.64,488.369H70.498c-34.658,0-62.228-27.569-62.228-62.228c0-33.871,27.569-62.228,62.228-62.228
	H496.64c-34.658,0-62.228,27.569-62.228,62.228C434.412,460.012,461.982,488.369,496.64,488.369z"/>
<path style="fill:#183651;" d="M496.64,496.246L496.64,496.246H70.498c-39.385,0-70.105-32.295-70.105-70.105
	c0-38.597,31.508-70.105,70.105-70.105H496.64c4.726,0,7.877,3.151,7.877,7.877c0,4.726-3.151,7.877-7.877,7.877
	c-29.932,0-54.351,24.418-54.351,54.351c0,29.145,23.631,54.351,54.351,54.351l0,0l0,0c4.726,0,7.877,3.151,7.877,7.877
	C504.517,492.308,501.366,496.246,496.64,496.246z M70.498,371.791c-29.932,0-54.351,24.418-54.351,54.351
	c0,29.145,23.631,54.351,54.351,54.351h382.031c-15.754-12.603-25.994-32.295-25.994-54.351c0-22.055,10.24-40.96,25.994-54.351
	H70.498z"/>
<path style="fill:#FFFFFF;" d="M70.498,460.012c-8.665,0-17.329-3.151-23.631-10.24c-6.302-6.302-10.24-14.966-10.24-23.631
	c0-18.905,14.966-33.871,33.871-33.871h342.646c-4.726,10.24-7.089,22.055-7.089,33.871c0,11.815,2.363,22.843,6.302,33.871H70.498z
	"/>
<g>
	<rect x="199.68" y="418.265" style="fill:#183651;" width="234.732" height="15.754"/>
	<rect x="73.649" y="417.477" style="fill:#183651;" width="15.754" height="16.542"/>
	<rect x="116.185" y="417.477" style="fill:#183651;" width="15.754" height="16.542"/>
	<rect x="157.932" y="417.477" style="fill:#183651;" width="15.754" height="16.542"/>
</g>
<path style="fill:#FFFFFF;" d="M390.302,333.194L289.477,189.046V40.96h1.575c8.665,0,16.542-7.089,16.542-16.542
	c0-8.665-7.089-16.542-16.542-16.542h-77.982c-8.665,0-16.542,7.089-16.542,16.542c0,8.665,7.089,16.542,16.542,16.542h1.575
	v147.298L114.609,333.194c-9.452,13.391,0,30.72,16.542,30.72h244.185C390.302,363.914,399.754,345.797,390.302,333.194z"/>
<path style="fill:#183651;" d="M374.548,371.791H130.363c-10.24,0-19.692-5.514-24.418-14.966
	c-4.726-9.452-3.938-20.48,1.575-28.357l99.249-141.785V48.049c-10.24-3.151-18.117-11.815-18.117-23.631
	C188.652,11.028,199.68,0,213.071,0h77.982c13.391,0,24.418,11.028,24.418,24.418c0,11.028-7.877,20.48-18.117,23.631v137.846
	l99.249,141.785c6.302,8.665,6.302,19.692,1.575,28.357C394.24,366.277,384.788,371.791,374.548,371.791z M213.858,16.542
	c-4.726,0-8.665,3.938-8.665,8.665s3.938,8.665,8.665,8.665h1.575c4.726,0,7.877,3.151,7.877,7.877v147.298
	c0,1.575-0.788,3.151-1.575,4.726l-100.825,143.36c-2.363,3.938-3.151,7.877-0.788,12.603c2.363,3.938,6.302,6.302,10.24,6.302
	h244.185c4.726,0,8.665-2.363,10.24-6.302c2.363-3.938,1.575-8.665-0.788-12.603l-100.825-143.36
	c-0.788-1.575-1.575-3.151-1.575-4.726V40.96c0-4.726,3.151-7.877,7.877-7.877h1.575c4.726,0,8.665-3.938,8.665-8.665
	s-3.938-8.665-8.665-8.665h-77.194V16.542z"/>
<g>
	<polygon style="fill:#FCBD5E;" points="213.858,238.671 145.329,336.345 359.582,336.345 291.052,238.671 	"/>
	<circle style="fill:#FCBD5E;" cx="260.332" cy="122.88" r="9.452"/>
	<circle style="fill:#FCBD5E;" cx="252.455" cy="196.135" r="13.391"/>
	<circle style="fill:#FCBD5E;" cx="243.791" cy="69.317" r="9.452"/>
</g>
<g>
</g>
<g>
</g>
<g>
</g>
<g>
</g>
<g>
</g>
<g>
</g>
<g>
</g>
<g>
</g>
<g>
</g>
<g>
</g>
<g>
</g>
<g>
</g>
<g>
</g>
<g>
</g>
<g>
</g>
</svg>
